<?xml version="1.0" encoding="UTF-8"?>
<svg width="90px" height="26px" viewBox="0 0 90 26" version="1.1" xmlns="http://www.w3.org/2000/svg" xmlns:xlink="http://www.w3.org/1999/xlink">
    <!-- Generator: Sketch 55.1 (78136) - https://sketchapp.com -->
    <title>QFinds-logo</title>
    <desc>Created with Sketch.</desc>
    <g id="Page-1" stroke="none" stroke-width="1" fill="none" fill-rule="evenodd">
        <g id="QFinds-logo">
            <g>
                <path d="M29.2546154,23.8625312 L29.2546154,5.07996435 L41.8190769,5.07996435 L41.8190769,8.9373262 L33.4121538,8.9373262 L33.4121538,12.701533 L41.1863077,12.701533 L41.1863077,16.5588948 L33.4121538,16.5588948 L33.4121538,23.8625312 L29.2546154,23.8625312 Z M43.2216923,10.9552228 L47.2209231,10.9552228 L47.2209231,23.8629947 L43.2216923,23.8629947 L43.2216923,10.9552228 Z M45.2215385,4.60399287 C45.8370212,4.59496399 46.4290783,4.84068312 46.8586154,5.28342246 C47.6001051,6.02746706 47.751463,7.17885383 47.2276411,8.09061908 C46.7038192,9.00238433 45.6354369,9.44717187 44.6228176,9.17505579 C43.6101982,8.90293971 42.905847,7.9817744 42.9055385,6.92916221 C42.9065568,5.64524952 43.9429436,4.60475959 45.2215385,4.60399287 Z M61.3846154,12.3947237 C61.7252308,12.9416043 61.9610769,13.5946168 62.0875385,14.3370766 C62.2145044,15.1339947 62.2762494,15.9400172 62.2721538,16.7470588 L62.2721538,23.8625312 L58.2729231,23.8625312 L58.2729231,17.5409626 C58.2729231,17.1725134 58.2595385,16.7859893 58.2336923,16.3915865 C58.2114292,16.0177592 58.1318786,15.6496167 57.9978462,15.3001426 C57.8751053,14.9801125 57.6676386,14.6998291 57.3978462,14.4895544 C57.1306154,14.2823886 56.7415385,14.1771836 56.2389231,14.1771836 C55.7363077,14.1771836 55.3232308,14.2694118 55.0121538,14.4515508 C54.7105072,14.6243792 54.4625382,14.8778719 54.2958462,15.1838146 C54.1253122,15.5068485 54.0145941,15.858286 53.9690769,16.2210339 C53.9156975,16.6235536 53.8893303,17.029222 53.8901538,17.4352941 L53.8901538,23.8625312 L49.8909231,23.8625312 L49.8909231,10.9552228 L53.7323077,10.9552228 L53.7323077,12.7029234 L53.7475385,12.7029234 C53.8879017,12.4353391 54.0643318,12.1884637 54.2718462,11.9692692 C54.5143931,11.7108815 54.790949,11.4869703 55.0938462,11.3037433 C55.4344369,11.0990917 55.7992975,10.9382466 56.1798462,10.8249911 C56.6097915,10.6983368 57.055951,10.6358739 57.504,10.6396078 C58.5036923,10.6396078 59.3229231,10.7939394 59.9390769,11.103066 C60.530731,11.39091 61.031167,11.8380734 61.3846154,12.3947237 Z M73.7127692,12.3312299 L73.7150769,3.81008913 L77.7143077,3.81008913 L77.7143077,23.864385 L74.0312308,23.864385 L74.0312308,22.1709091 L74.0136923,22.1709091 C73.8332694,22.4236474 73.6269062,22.6566551 73.398,22.8660963 C73.1245917,23.1183305 72.8223214,23.3370694 72.4975385,23.5177184 C72.1373186,23.7194984 71.755704,23.8800856 71.3598462,23.9964706 C70.9426596,24.1200582 70.509885,24.1824971 70.0749231,24.1818588 C69.1278462,24.1818588 68.256,24.0150089 67.4833846,23.6905882 C66.7280359,23.3765383 66.0473148,22.9057274 65.4858462,22.3090196 C64.9207612,21.6992429 64.4843209,20.9810083 64.2027692,20.1975045 C63.9046154,19.3878431 63.7531791,18.4859537 63.7531791,17.5163993 C63.750108,16.6373624 63.8885084,15.7635979 64.1630769,14.9289127 C64.421056,14.1363919 64.8148106,13.3951684 65.3266154,12.7386096 C65.8253211,12.1043481 66.4519497,11.5831444 67.1653846,11.2091979 C67.8858462,10.8296257 68.7143077,10.6372906 69.6272308,10.6372906 C70.4147642,10.631296 71.1974402,10.761579 71.9409231,11.0224242 C72.6424846,11.2732112 73.2532873,11.729022 73.6947692,12.3312299 L73.7127692,12.3312299 Z M73.2050769,15.0693405 C72.6586154,14.477041 71.8809231,14.1771836 70.8913846,14.1771836 C69.9018462,14.1771836 69.1236923,14.4765775 68.5763077,15.0693405 C68.0289231,15.6621034 67.752,16.4490553 67.752,17.408877 C67.752,18.3686988 68.0303077,19.1565775 68.5763077,19.7484135 C69.1223077,20.3402496 69.9009231,20.6405704 70.8913846,20.6405704 C71.8818462,20.6405704 72.66,20.340713 73.2069231,19.7484135 C73.7538462,19.1561141 74.0307692,18.3686988 74.0307692,17.408877 C74.0307692,16.4490553 73.7538462,15.6621034 73.2050769,15.0693405 Z M89.5010769,17.9650267 C89.8273846,18.4521212 89.9926154,19.1106952 89.9903315,19.9236007 C89.9903315,20.7536542 89.8075385,21.4479144 89.4461538,21.9878431 C89.0882707,22.5238776 88.612283,22.96997 88.0550769,23.2915508 C87.4637042,23.6284442 86.8196088,23.8619537 86.1503077,23.9821034 C85.4625214,24.1128681 84.764158,24.1794265 84.0641538,24.1809269 C83.1433153,24.1773842 82.2272321,24.0481313 81.3410769,23.7967201 C80.456549,23.5580306 79.6520767,23.085216 79.0116923,22.4276649 L78.9964615,22.4119073 L81.4273846,19.7029947 L81.4444615,19.7238503 C81.8090769,20.1780392 82.2198462,20.5279501 82.6624615,20.7633868 C83.1050769,20.9988235 83.6289231,21.1179323 84.2196923,21.1179323 C84.6381981,21.123442 85.0545437,21.0568192 85.4506154,20.9209626 C85.8129231,20.7907308 85.9887692,20.5599287 85.9887692,20.2151159 C85.9887692,19.8911586 85.8355385,19.6473797 85.5138462,19.4814617 C85.1921538,19.3155437 84.7772308,19.1737255 84.2806154,19.0597148 C83.7793846,18.9444682 83.2435385,18.8208794 82.6730769,18.6889483 C82.112086,18.5601393 81.5699393,18.3593572 81.06,18.0915508 C80.5568021,17.8248071 80.1283268,17.4355038 79.8138462,16.9593226 C79.4875385,16.4726916 79.3223077,15.8141176 79.3223077,15.0012121 C79.3223077,14.2420677 79.4783077,13.5793226 79.7866154,13.0315152 C80.0863145,12.4928969 80.5029212,12.0289377 81.0055385,11.6740463 C81.5317356,11.3101268 82.1189805,11.0444848 82.7390769,10.8898752 C83.3874742,10.7226238 84.0542442,10.6379188 84.7236923,10.637754 C85.590996,10.6413018 86.4535843,10.7660886 87.2866154,11.0085205 C88.125915,11.2427788 88.8857597,11.7023123 89.4844615,12.3377184 L89.4996923,12.3544029 L87.0410769,14.7963636 L87.0249231,14.7764349 C86.4526154,14.062246 85.6869231,13.7002852 84.75,13.7002852 C84.4145547,13.7019694 84.0841751,13.7826061 83.7853846,13.9357219 C83.4789231,14.08959 83.3238462,14.3588592 83.3238462,14.7356506 C83.3238462,15.0419964 83.4835385,15.2709447 83.7978462,15.4155437 C84.1195385,15.5643137 84.5349231,15.6973262 85.032,15.8113369 C85.5326154,15.9262745 86.0684615,16.0498633 86.6395385,16.1821034 C87.204809,16.3120499 87.7487431,16.5222575 88.2549231,16.8063815 C88.7553392,17.0887169 89.1823049,17.4856998 89.5010769,17.9650267 Z" id="Combined-Shape" fill="#333333" fill-rule="nonzero"></path>
                <path d="M15.0789231,13.2970766 L22.8512308,21.1017112 L22.932,21.0006774 C24.7614082,18.7123596 25.7570461,15.8649352 25.7538538,12.9304813 C25.7538538,5.80110517 19.9786154,0 12.8769231,0 C5.77523077,0 0,5.80110517 0,12.9304813 C0,20.0598574 5.77707692,25.8609626 12.8769231,25.8609626 C15.1091901,25.8616273 17.3031628,25.2786281 19.2429231,24.1693405 L24.4403077,25.9661676 L17.4549231,18.9517291 L17.3750769,19.0115152 C16.0771619,19.9875418 14.498442,20.5134221 12.8769231,20.5098752 C8.71523077,20.5098752 5.32984615,17.1099465 5.32984615,12.9314082 C5.32984615,8.75286988 8.71615385,5.35294118 12.8769231,5.35294118 C17.0376923,5.35294118 20.4249231,8.75240642 20.4249231,12.9304813 C20.4253565,13.6660291 20.3186899,14.3976886 20.1083077,15.102246 L15.0789231,13.2970766 Z" id="Path" fill="#5863F8" fill-rule="nonzero"></path>
            </g>
        </g>
    </g>
</svg>