<?xml version="1.0" standalone="no"?>
<!DOCTYPE svg PUBLIC "-//W3C//DTD SVG 20010904//EN"
 "http://www.w3.org/TR/2001/REC-SVG-20010904/DTD/svg10.dtd">
<svg version="1.0" xmlns="http://www.w3.org/2000/svg"
 width="700.000000pt" height="700.000000pt" viewBox="0 0 700.000000 700.000000"
 preserveAspectRatio="xMidYMid meet">
<metadata>
Created by potrace 1.11, written by Peter Selinger 2001-2013
</metadata>
<g transform="translate(0.000000,700.000000) scale(0.100000,-0.100000)"
fill="#000000" stroke="none">
<path d="M3278 6995 c-1 -1 -42 -5 -89 -9 -47 -4 -95 -8 -105 -10 -10 -2 -48
-7 -84 -12 -36 -4 -67 -8 -70 -9 -3 -1 -25 -5 -50 -9 -60 -10 -71 -12 -100
-19 -14 -4 -74 -18 -135 -33 -277 -67 -665 -222 -882 -355 -36 -21 -67 -39
-70 -39 -8 0 -245 -161 -308 -209 -235 -180 -514 -457 -660 -656 -17 -22 -32
-42 -35 -45 -3 -3 -31 -41 -62 -85 -235 -338 -422 -742 -518 -1124 -31 -124
-69 -312 -76 -383 -3 -35 -8 -65 -9 -68 -2 -3 -7 -48 -12 -100 -15 -176 -8
-608 12 -731 2 -13 6 -44 9 -69 4 -25 9 -58 11 -75 81 -454 211 -814 433
-1195 452 -775 1214 -1363 2082 -1604 76 -21 315 -73 370 -81 25 -3 72 -10
105 -15 135 -21 223 -25 485 -25 278 1 393 10 605 50 106 20 122 24 234 51
237 58 510 161 734 276 l139 72 92 -31 c50 -18 224 -77 386 -133 162 -56 333
-114 380 -130 47 -16 191 -65 320 -110 l235 -81 -785 781 c-432 429 -860 855
-952 947 l-166 166 -39 -30 c-183 -143 -475 -277 -738 -339 -66 -15 -84 -19
-144 -29 -155 -27 -504 -27 -642 0 -13 3 -49 9 -79 15 -30 6 -80 17 -110 26
-30 8 -64 17 -76 19 -11 3 -51 16 -90 31 -38 14 -82 30 -99 36 -71 27 -268
132 -360 194 -409 273 -689 653 -838 1139 -13 44 -32 128 -52 230 -20 111 -28
465 -11 585 91 675 502 1254 1108 1564 345 176 712 246 1118 213 75 -6 109
-11 235 -34 66 -11 270 -75 351 -108 703 -291 1185 -935 1265 -1690 18 -176 2
-473 -35 -630 -22 -92 -37 -150 -40 -152 -2 -3 -192 63 -468 163 -127 45 -203
72 -288 102 -113 40 -349 124 -483 173 -60 21 -112 39 -115 39 -4 0 467 -473
1047 -1050 l1053 -1049 37 47 c182 234 356 521 450 742 13 30 29 69 37 85 14
32 52 132 84 225 36 107 89 306 114 435 31 159 30 151 55 385 18 161 3 620
-25 785 -3 17 -7 45 -10 64 -3 27 -30 157 -49 241 -21 92 -64 239 -97 330 -11
30 -21 60 -22 65 -2 6 -8 21 -13 35 -6 14 -25 61 -43 105 -36 90 -153 326
-181 367 -11 14 -19 30 -19 34 0 4 -11 24 -24 43 -12 20 -45 70 -71 111 -277
433 -672 812 -1152 1104 -90 54 -411 216 -430 216 -5 0 -27 8 -49 19 -140 66
-553 181 -744 206 -19 3 -46 7 -60 10 -13 2 -52 7 -86 11 -33 3 -74 8 -90 10
-32 5 -540 14 -546 9z"/>
</g>
</svg>
