<svg xmlns="http://www.w3.org/2000/svg" width="26" height="27" viewBox="0 0 26 27">
    <g fill="none" fill-rule="evenodd">
        <g>
            <path fill="#000" d="M8.333 0h6.549c2.897 0 3.948.302 5.007.868 1.06.567 1.89 1.398 2.457 2.457.567 1.06.868 2.11.868 5.008v6.549c0 2.897-.301 3.948-.868 5.007-.566 1.06-1.398 1.89-2.457 2.457-1.06.567-2.11.868-5.007.868h-6.55c-2.897 0-3.947-.301-5.007-.868-1.059-.566-1.89-1.398-2.457-2.457C.302 18.829 0 17.779 0 14.882v-6.55c0-2.897.302-3.947.868-5.007.567-1.059 1.398-1.89 2.457-2.457C4.385.302 5.435 0 8.333 0z" transform="translate(0 1) translate(1.857 1.857)"/>
            <g fill-rule="nonzero">
                <path fill="#FE2C55" d="M.643 13.207l.099.14c-.012-.015-.05-.064-.099-.14zm2.001-3.213c.09-.763.392-1.189.96-1.627.813-.591 1.827-.257 1.827-.257V6.122c.247-.006.494.01.737.046v2.558s-1.014-.334-1.828.257c-.567.438-.87.864-.959 1.626-.003.414.071.956.416 1.421-.086-.045-.172-.098-.262-.156-.755-.527-.894-1.32-.89-1.88zm7.72-7.548c-.558-.634-.77-1.277-.847-1.727h.703s-.14 1.182.881 2.343l.016.015c-.278-.177-.53-.392-.753-.63zm3.389 1.801v2.506s-.897-.037-1.563-.211c-.928-.245-1.523-.622-1.523-.622s-.414-.27-.444-.288v5.176c0 .288-.077 1.008-.309 1.608-.302.785-.77 1.302-.857 1.406 0 0-.57.699-1.572 1.167-.904.423-1.699.414-1.936.423 0 0-1.372.055-2.609-.775-.268-.184-.518-.392-.746-.622l.006.006c1.237.834 2.609.775 2.609.775.237-.009 1.032 0 1.936-.422 1.002-.469 1.572-1.167 1.572-1.167.087-.104.555-.622.857-1.406.232-.6.309-1.32.309-1.608V5.019c.034.019.444.288.444.288s.595.377 1.523.622c.666.175 1.563.211 1.563.211V4.177c.308.07.57.089.74.07z" transform="translate(0 1) translate(1.857 1.857) translate(4.643 3.714)"/>
                <path fill="#FFF" d="M13.013 4.174v1.963s-.897-.036-1.563-.211c-.928-.245-1.523-.622-1.523-.622s-.413-.27-.444-.288v5.177c0 .288-.077 1.007-.309 1.608-.302.784-.77 1.302-.857 1.406 0 0-.57.698-1.572 1.167-.904.422-1.699.413-1.936.422 0 0-1.372.056-2.609-.775l-.006-.006c-.13-.131-.253-.27-.367-.413-.394-.5-.635-1.088-.697-1.256v-.003c-.098-.291-.302-.996-.274-1.672.05-1.198.456-1.936.564-2.12.284-.502.657-.953 1.095-1.33.388-.324.83-.584 1.3-.765.513-.215 1.061-.328 1.616-.337v1.988s-1.014-.334-1.828.257c-.567.438-.87.864-.959 1.627-.003.56.136 1.353.894 1.883.09.058.176.11.262.156.133.178.293.334.478.463.743.487 1.363.52 2.159.205.53-.211.928-.686 1.113-1.216.117-.33.114-.661.114-1.004V.718h1.85c.077.451.286 1.094.847 1.728.225.24.478.454.753.631.08.09.496.518 1.033.784.274.138.567.242.866.313z" transform="translate(0 1) translate(1.857 1.857) translate(4.643 3.714)"/>
                <path fill="#25F4EE" d="M3.816 6.459c-.475.18-.913.441-1.301.766-.441.376-.811.83-1.095 1.332-.108.184-.515.919-.564 2.12-.028.68.179 1.381.274 1.672v.003c.062.165.303.757.697 1.256.114.144.238.282.367.413-.42-.287-.79-.634-1.107-1.029-.391-.493-.632-1.078-.693-1.25v-.006c-.1-.29-.306-.995-.275-1.675.05-1.198.456-1.936.564-2.12.284-.502.654-.955 1.095-1.332.388-.325.83-.585 1.301-.766.296-.122.604-.211.919-.27.475-.082.959-.088 1.437-.02v.569c-.559.01-1.107.122-1.62.337zm5.7-5.74h-1.85v9.759c0 .343 0 .673-.113 1.004-.188.527-.586 1.005-1.113 1.216-.796.319-1.419.282-2.159-.205-.185-.126-.345-.282-.477-.46.632.334 1.196.328 1.896.05.53-.212.928-.69 1.113-1.216.117-.331.114-.662.114-1.005V.103h2.556c-.003 0-.031.242.034.616zm3.497 2.913v.542c-.3-.07-.592-.175-.866-.313-.534-.263-.95-.695-1.033-.784.095.062.19.117.293.169.653.321 1.291.42 1.606.386z" transform="translate(0 1) translate(1.857 1.857) translate(4.643 3.714)"/>
            </g>
        </g>
    </g>
</svg>
